<svg xmlns="http://www.w3.org/2000/svg" width="646.7" height="636.31" viewBox="0 0 646.7 636.31">
  <g id="Group_210" data-name="Group 210" transform="matrix(0.454, -0.891, 0.891, 0.454, -21.149, 419.369)" opacity="0.1">
    <path id="Path_1" data-name="Path 1" d="M67.041,48.558a2.084,2.084,0,0,0-.3-.924L39.739,3.316a1.611,1.611,0,0,0-.964-.752A1.2,1.2,0,0,0,37.7,2.8L2.537,31.5a1.714,1.714,0,0,0-.563,1.472,2.085,2.085,0,0,0,.3.924L29.276,78.213a1.609,1.609,0,0,0,.964.752,1.2,1.2,0,0,0,1.075-.24l35.162-28.7A1.713,1.713,0,0,0,67.041,48.558ZM2.09,32.97a1.576,1.576,0,0,1,.518-1.354L37.77,2.92a1.1,1.1,0,0,1,.989-.221,1.481,1.481,0,0,1,.887.692L66.653,47.709a1.914,1.914,0,0,1,.272.85,1.578,1.578,0,0,1-.518,1.354L31.245,78.61a1.105,1.105,0,0,1-.989.221,1.482,1.482,0,0,1-.887-.692L2.362,33.82A1.914,1.914,0,0,1,2.09,32.97Z" transform="translate(194.77 233.115)" fill="#0093de"/>
    <path id="Path_2" data-name="Path 2" d="M53.794,39.529a1.742,1.742,0,0,0-.246-.775l-22-36.115a1.285,1.285,0,0,0-.779-.607.943.943,0,0,0-.858.212L2.086,26.335a1.439,1.439,0,0,0-.438,1.2,1.745,1.745,0,0,0,.246.775l22,36.115a1.072,1.072,0,0,0,1.636.4l27.826-24.09A1.439,1.439,0,0,0,53.794,39.529ZM1.744,27.535a1.32,1.32,0,0,1,.4-1.1L29.972,2.342a.865.865,0,0,1,.787-.195,1.18,1.18,0,0,1,.715.557l22,36.115a1.6,1.6,0,0,1,.226.712,1.32,1.32,0,0,1-.4,1.1L25.47,64.724a.984.984,0,0,1-1.5-.362l-22-36.115A1.6,1.6,0,0,1,1.744,27.535Z" transform="translate(209.306 232.652)" fill="#0093de"/>
    <path id="Path_3" data-name="Path 3" d="M40.555,30.664a1.41,1.41,0,0,0-.194-.621L23.512,1.978a.784.784,0,0,0-1.233-.287L1.633,21.018a1.168,1.168,0,0,0-.318.937,1.408,1.408,0,0,0,.194.621L18.357,50.641a.964.964,0,0,0,.591.466.688.688,0,0,0,.642-.179L40.236,31.6A1.168,1.168,0,0,0,40.555,30.664ZM1.388,21.954a1.07,1.07,0,0,1,.292-.858L22.326,1.769a.718.718,0,0,1,1.129.263L40.3,30.1a1.29,1.29,0,0,1,.177.569,1.068,1.068,0,0,1-.292.858L19.543,50.851a.631.631,0,0,1-.589.164.883.883,0,0,1-.541-.427L1.565,22.523A1.289,1.289,0,0,1,1.388,21.954Z" transform="translate(223.844 232.19)" fill="#0093de"/>
    <path id="Path_4" data-name="Path 4" d="M27.325,21.972a1.087,1.087,0,0,0-.137-.462L15.639,1.336a.648.648,0,0,0-.4-.331.44.44,0,0,0-.429.141L1.176,15.54a.9.9,0,0,0-.205.676,1.084,1.084,0,0,0,.137.462L12.656,36.853c.21.366.582.452.829.19L27.12,22.649A.9.9,0,0,0,27.325,21.972Zm-26.3-5.757a.824.824,0,0,1,.188-.618L14.843,1.2a.4.4,0,0,1,.392-.128.592.592,0,0,1,.366.3L27.15,21.552a.994.994,0,0,1,.125.422.824.824,0,0,1-.188.618L13.452,36.986c-.226.239-.566.161-.757-.174L1.146,16.637A.993.993,0,0,1,1.021,16.215Z" transform="translate(238.381 231.707)" fill="#0093de"/>
    <path id="Path_5" data-name="Path 5" d="M14.1,13.467a.8.8,0,0,0-.075-.3L7.942.711a.346.346,0,0,0-.207-.2.2.2,0,0,0-.217.1l-6.8,9.28a.664.664,0,0,0-.1.421.8.8,0,0,0,.075.3L6.777,23.063a.345.345,0,0,0,.208.2.2.2,0,0,0,.217-.1l6.8-9.28A.665.665,0,0,0,14.1,13.467ZM.643,10.306a.6.6,0,0,1,.09-.384l6.8-9.28a.186.186,0,0,1,.2-.087.315.315,0,0,1,.189.183L14.007,13.2a.724.724,0,0,1,.068.269.607.607,0,0,1-.09.384l-6.8,9.28a.186.186,0,0,1-.2.087.315.315,0,0,1-.189-.183L.712,10.575A.72.72,0,0,1,.643,10.306Z" transform="translate(252.921 231.227)" fill="#0093de"/>
    <path id="Path_6" data-name="Path 6" d="M.89,5.155c0-.045,0-.087-.008-.122L.435.105C.427.016.418,0,.415.074L.251,4.036c0,.041,0,.105,0,.171,0,.045,0,.087.008.122L.707,9.257a.315.315,0,0,0,.012.077c0,.006.007-.01.008-.045L.892,5.327C.893,5.285.893,5.221.89,5.155ZM.254,4.206c0-.06,0-.118,0-.156L.416.088c0-.066.011-.053.018.029L.882,5.045c0,.032.005.07.007.111,0,.06,0,.118,0,.156L.726,9.274c0,.032,0,.046-.007.041a.291.291,0,0,1-.011-.07L.261,4.317C.258,4.286.255,4.247.254,4.206Z" transform="translate(267.459 230.744)" fill="#0093de"/>
    <path id="Path_7" data-name="Path 7" d="M0,0ZM0,0Z" transform="translate(281.95 230.077)" fill="#0093de"/>
    <path id="Path_8" data-name="Path 8" d="M479.079,286.756a12.12,12.12,0,0,0-2.787-6.806L260.964,20.7a11.136,11.136,0,0,0-7.256-4.053,9.313,9.313,0,0,0-7.443,2.346L17.322,226.605a10.4,10.4,0,0,0-3.238,8.639,12.136,12.136,0,0,0,2.786,6.809L232.2,501.3a11.128,11.128,0,0,0,7.254,4.055,9.314,9.314,0,0,0,7.442-2.347L475.842,295.394A10.394,10.394,0,0,0,479.079,286.756Zm-464-51.518A9.4,9.4,0,0,1,18,227.427L246.948,19.815a8.415,8.415,0,0,1,6.729-2.121,10.07,10.07,0,0,1,6.561,3.664L475.565,280.607a10.952,10.952,0,0,1,2.52,6.155,9.4,9.4,0,0,1-2.926,7.811L246.216,502.186a8.426,8.426,0,0,1-6.731,2.119,10.063,10.063,0,0,1-6.559-3.662L17.6,241.393A10.942,10.942,0,0,1,15.078,235.239Z" transform="translate(0 0)" fill="#0093de"/>
    <path id="Path_9" data-name="Path 9" d="M465.811,274.512a11.931,11.931,0,0,0-2.842-6.776L249.706,19.718a10.78,10.78,0,0,0-7.117-3.808,9.045,9.045,0,0,0-7.187,2.427L16.957,224.656a10.151,10.151,0,0,0-3.012,8.275,11.946,11.946,0,0,0,2.841,6.777L230.05,487.726a10.781,10.781,0,0,0,7.116,3.807,9.034,9.034,0,0,0,7.186-2.428L462.8,282.785A10.153,10.153,0,0,0,465.811,274.512ZM14.939,232.925a9.151,9.151,0,0,1,2.715-7.46L236.1,19.146a8.146,8.146,0,0,1,6.478-2.186,9.712,9.712,0,0,1,6.414,3.432L462.256,268.409a10.755,10.755,0,0,1,2.561,6.108,9.161,9.161,0,0,1-2.716,7.459L243.655,488.3a8.156,8.156,0,0,1-6.479,2.188,9.727,9.727,0,0,1-6.414-3.431L17.5,239.034A10.74,10.74,0,0,1,14.939,232.925Z" transform="translate(6.703 7.279)" fill="#0093de"/>
    <path id="Path_10" data-name="Path 10" d="M452.551,262.273a11.6,11.6,0,0,0-2.9-6.747L238.455,18.741a10.427,10.427,0,0,0-6.976-3.564,8.782,8.782,0,0,0-6.932,2.51L16.6,222.71a9.919,9.919,0,0,0-2.791,7.911,11.6,11.6,0,0,0,2.9,6.748L227.9,474.155c3.864,4.331,10.1,4.8,13.906,1.052L449.76,270.184A9.923,9.923,0,0,0,452.551,262.273ZM14.8,230.617a8.917,8.917,0,0,1,2.509-7.111L225.258,18.483a7.887,7.887,0,0,1,6.228-2.255,9.376,9.376,0,0,1,6.27,3.2l211.2,236.785a10.412,10.412,0,0,1,2.605,6.062,8.923,8.923,0,0,1-2.506,7.111L241.1,474.41c-3.417,3.372-9.025,2.947-12.5-.945L17.406,236.679A10.421,10.421,0,0,1,14.8,230.617Z" transform="translate(13.403 14.556)" fill="#0093de"/>
    <path id="Path_11" data-name="Path 11" d="M439.3,250.029a11.245,11.245,0,0,0-2.961-6.715L227.2,17.761c-3.832-4.132-9.892-4.458-13.51-.725L16.242,220.764a9.686,9.686,0,0,0-2.573,7.549,11.231,11.231,0,0,0,2.962,6.717L225.762,460.582c3.831,4.133,9.892,4.46,13.511.726l197.449-203.73A9.689,9.689,0,0,0,439.3,250.029ZM14.662,228.307a8.678,8.678,0,0,1,2.3-6.76l197.45-203.73c3.241-3.343,8.671-3.051,12.1.651L435.652,244.022a10.061,10.061,0,0,1,2.652,6.014A8.673,8.673,0,0,1,436,256.8L238.549,460.528c-3.243,3.342-8.671,3.048-12.1-.652L17.315,234.324A10.077,10.077,0,0,1,14.662,228.307Z" transform="translate(20.099 21.829)" fill="#0093de"/>
    <path id="Path_12" data-name="Path 12" d="M426.055,237.8a10.918,10.918,0,0,0-3.031-6.688L215.96,16.791c-3.8-3.933-9.684-4.11-13.115-.4L15.891,218.83a9.461,9.461,0,0,0-2.36,7.182,10.917,10.917,0,0,0,3.031,6.69L223.626,447.023c3.8,3.932,9.684,4.111,13.116.4L423.695,244.985A9.475,9.475,0,0,0,426.055,237.8ZM14.525,226.008a8.44,8.44,0,0,1,2.106-6.41L203.584,17.162c3.064-3.316,8.315-3.158,11.708.353l207.064,214.32a9.742,9.742,0,0,1,2.706,5.971,8.455,8.455,0,0,1-2.108,6.412L236,446.655c-3.065,3.316-8.316,3.155-11.709-.358L17.23,231.978A9.739,9.739,0,0,1,14.525,226.008Z" transform="translate(26.788 29.093)" fill="#0093de"/>
    <path id="Path_13" data-name="Path 13" d="M412.82,225.578a10.557,10.557,0,0,0-3.1-6.656l-205-203.091a9.391,9.391,0,0,0-6.557-2.823A8.026,8.026,0,0,0,192,15.767L15.546,216.9a9.116,9.116,0,0,0-2.152,6.818,10.555,10.555,0,0,0,3.1,6.659l205,203.09c3.767,3.731,9.473,3.763,12.718.067L410.67,232.4A9.121,9.121,0,0,0,412.82,225.578Zm-398.433-1.86a8.108,8.108,0,0,1,1.914-6.065L192.758,16.516a7.132,7.132,0,0,1,5.478-2.454,8.358,8.358,0,0,1,5.832,2.511l205,203.089a9.4,9.4,0,0,1,2.761,5.924,8.113,8.113,0,0,1-1.912,6.065L233.459,432.788c-2.885,3.289-7.959,3.26-11.312-.058l-205-203.089A9.4,9.4,0,0,1,14.388,223.718Z" transform="translate(33.474 36.351)" fill="#0093de"/>
    <path id="Path_14" data-name="Path 14" d="M399.6,213.355a10.237,10.237,0,0,0-3.183-6.63L193.482,14.867c-3.737-3.533-9.264-3.412-12.321.268L15.2,214.979a8.9,8.9,0,0,0-1.946,6.451,10.234,10.234,0,0,0,3.181,6.631L219.371,419.921c3.738,3.529,9.266,3.411,12.323-.27L397.65,219.809A8.906,8.906,0,0,0,399.6,213.355ZM14.251,221.424a7.885,7.885,0,0,1,1.724-5.717L181.933,15.865c2.709-3.261,7.607-3.368,10.918-.238L395.784,207.486a9.058,9.058,0,0,1,2.819,5.874,7.887,7.887,0,0,1-1.725,5.717L230.921,418.921c-2.709,3.261-7.6,3.368-10.919.236L17.071,227.3A9.061,9.061,0,0,1,14.251,221.424Z" transform="translate(40.154 43.608)" fill="#0093de"/>
    <path id="Path_15" data-name="Path 15" d="M386.385,201.147a10.04,10.04,0,0,0-3.266-6.6L182.251,13.919a8.734,8.734,0,0,0-6.277-2.327,7.557,7.557,0,0,0-5.647,2.928L14.868,213.067a8.694,8.694,0,0,0-1.748,6.084,10.045,10.045,0,0,0,3.267,6.6L217.255,406.38c3.706,3.333,9.055,3.063,11.922-.6l155.459-198.55A8.689,8.689,0,0,0,386.385,201.147Zm-372.272,18a7.68,7.68,0,0,1,1.542-5.372L171.116,15.229a6.662,6.662,0,0,1,4.983-2.584,7.7,7.7,0,0,1,5.541,2.054L382.507,195.326a8.862,8.862,0,0,1,2.883,5.826,7.677,7.677,0,0,1-1.542,5.372L228.389,405.072c-2.531,3.232-7.253,3.469-10.525.528L17,224.975A8.863,8.863,0,0,1,14.113,219.148Z" transform="translate(46.829 50.853)" fill="#0093de"/>
    <path id="Path_16" data-name="Path 16" d="M373.186,188.94a9.706,9.706,0,0,0-3.361-6.573L171.025,12.972A8.4,8.4,0,0,0,164.89,10.9a7.332,7.332,0,0,0-5.389,3.013L14.538,211.16a8.489,8.489,0,0,0-1.554,5.717,9.7,9.7,0,0,0,3.36,6.574l198.8,169.4c3.671,3.13,8.843,2.711,11.522-.935L371.632,194.66A8.513,8.513,0,0,0,373.186,188.94ZM13.977,216.872a7.469,7.469,0,0,1,1.366-5.026L160.306,14.595a6.449,6.449,0,0,1,4.738-2.649,7.38,7.38,0,0,1,5.392,1.826l198.8,169.395a8.543,8.543,0,0,1,2.953,5.78,7.481,7.481,0,0,1-1.366,5.025L225.865,391.224c-2.356,3.207-6.9,3.575-10.133.821L16.932,222.653A8.537,8.537,0,0,1,13.977,216.872Z" transform="translate(53.497 58.093)" fill="#0093de"/>
    <path id="Path_17" data-name="Path 17" d="M360,176.736a9.4,9.4,0,0,0-3.462-6.547L159.807,12.029c-3.643-2.929-8.635-2.359-11.126,1.27L14.216,209.257a8.3,8.3,0,0,0-1.368,5.348,9.393,9.393,0,0,0,3.461,6.547L213.043,379.313c3.645,2.929,8.635,2.358,11.125-1.269L358.633,182.086A8.31,8.31,0,0,0,360,176.736ZM13.842,214.6a7.268,7.268,0,0,1,1.2-4.683L149.5,13.961a6.6,6.6,0,0,1,9.741-1.112L355.977,171.011a8.218,8.218,0,0,1,3.031,5.73,7.289,7.289,0,0,1-1.2,4.684L223.344,377.382a6.591,6.591,0,0,1-9.738,1.111L16.871,220.331A8.221,8.221,0,0,1,13.842,214.6Z" transform="translate(60.157 65.33)" fill="#0093de"/>
    <path id="Path_18" data-name="Path 18" d="M346.829,164.544a9.07,9.07,0,0,0-3.569-6.516L148.593,11.1c-3.614-2.726-8.425-2.006-10.725,1.607L13.9,207.367a7.992,7.992,0,0,0-1.188,4.979,9.077,9.077,0,0,0,3.566,6.519L210.95,365.8c3.613,2.727,8.424,2.005,10.724-1.607L345.641,169.525A7.993,7.993,0,0,0,346.829,164.544Zm-333.123,47.8A6.981,6.981,0,0,1,14.741,208L138.708,13.34a6.342,6.342,0,0,1,9.349-1.4L342.726,158.869a7.908,7.908,0,0,1,3.11,5.68,6.975,6.975,0,0,1-1.037,4.338L220.834,363.553a6.339,6.339,0,0,1-9.349,1.4L16.816,218.023A7.91,7.91,0,0,1,13.706,212.342Z" transform="translate(66.81 72.554)" fill="#0093de"/>
    <path id="Path_19" data-name="Path 19" d="M333.678,152.363a8.876,8.876,0,0,0-3.688-6.489l-192.6-135.7a7.029,7.029,0,0,0-10.323,1.945L13.6,205.489a7.81,7.81,0,0,0-1.018,4.608,8.869,8.869,0,0,0,3.688,6.488l192.6,135.7a7.029,7.029,0,0,0,10.323-1.944L332.661,156.973A7.837,7.837,0,0,0,333.678,152.363ZM13.571,210.093a6.772,6.772,0,0,1,.883-4L127.924,12.726a6.1,6.1,0,0,1,8.959-1.687l192.6,135.7a7.71,7.71,0,0,1,3.2,5.633,6.779,6.779,0,0,1-.885,4L218.332,349.737a6.1,6.1,0,0,1-8.958,1.685l-192.6-135.7A7.713,7.713,0,0,1,13.571,210.093Z" transform="translate(73.453 79.77)" fill="#0093de"/>
    <path id="Path_20" data-name="Path 20" d="M320.542,140.191a8.567,8.567,0,0,0-3.815-6.461L126.192,9.264a6.8,6.8,0,0,0-9.921,2.286L13.3,203.621a7.655,7.655,0,0,0-.856,4.238,8.576,8.576,0,0,0,3.816,6.462L206.8,338.788a6.8,6.8,0,0,0,9.92-2.285L319.688,144.429A7.658,7.658,0,0,0,320.542,140.191Zm-307.1,67.661a6.613,6.613,0,0,1,.738-3.658L117.146,12.122a5.872,5.872,0,0,1,8.571-1.974L316.252,134.614a7.406,7.406,0,0,1,3.3,5.582,6.614,6.614,0,0,1-.739,3.66L215.839,335.929a5.867,5.867,0,0,1-8.568,1.973L16.734,213.435A7.4,7.4,0,0,1,13.438,207.853Z" transform="translate(80.088 86.975)" fill="#0093de"/>
    <path id="Path_21" data-name="Path 21" d="M307.428,128.029a8.379,8.379,0,0,0-3.955-6.432L115,8.363a6.574,6.574,0,0,0-9.516,2.628L13.014,201.767a7.514,7.514,0,0,0-.7,3.865,8.393,8.393,0,0,0,3.954,6.433L204.736,325.3a6.575,6.575,0,0,0,9.517-2.628l92.472-190.776A7.485,7.485,0,0,0,307.428,128.029ZM13.3,205.627a6.425,6.425,0,0,1,.605-3.322L106.383,11.528a5.654,5.654,0,0,1,8.183-2.259L303.035,122.5a7.115,7.115,0,0,1,3.4,5.532,6.435,6.435,0,0,1-.6,3.323L213.357,322.134a5.653,5.653,0,0,1-8.183,2.258L16.705,211.158A7.11,7.11,0,0,1,13.3,205.627Z" transform="translate(86.712 94.169)" fill="#0093de"/>
    <path id="Path_22" data-name="Path 22" d="M294.339,115.879a8.085,8.085,0,0,0-4.106-6.4l-186.4-102a6.371,6.371,0,0,0-9.111,2.97L12.74,199.927a7.359,7.359,0,0,0-.562,3.491,8.083,8.083,0,0,0,4.109,6.4l186.4,102a6.367,6.367,0,0,0,9.11-2.968l81.977-189.483A7.344,7.344,0,0,0,294.339,115.879ZM13.172,203.413a6.277,6.277,0,0,1,.484-2.986L95.631,10.944A5.449,5.449,0,0,1,103.426,8.4l186.405,102a6.92,6.92,0,0,1,3.514,5.48,6.282,6.282,0,0,1-.481,2.988L210.889,308.354a5.45,5.45,0,0,1-7.8,2.541l-186.4-102A6.93,6.93,0,0,1,13.172,203.413Z" transform="translate(93.323 101.351)" fill="#0093de"/>
  </g>
</svg>
